# xmcd
#
# Track frame offsets:
# 150
# 21239
# 43010
# 59090
# 88376
# 108043
# 126207
# 148070
# 174592
# 195611
# 216545
# 237760
# 253499
# 275480
# 298376
#
# Disc length: 4224 seconds
#
#
# Revision: 4
# Processed by: cddbd v1.5.2PL0 Copyright (c) Steve Scherf et al.
# Submitted via: FreeRIP 2.945 
#
DISCID=fa107e0f
DTITLE=Rod Stewart and Bryan Adams - The best of Rod Stewart and Bryan Adams
DYEAR=1900
DGENRE=Blues
TTITLE0=Rod Stewart - Every Beay of my Heart
TTITLE1=Bryan Adams - Have you ever really loved a woman
TTITLE2=Rod Stewart - Tonight it's the night
TTITLE3=Bryan Adams - Everything I do
TTITLE4=Rod Stewart - Sailing
TTITLE5=Bryan Adams - Heaven
TTITLE6=Rod Stewart - I don't want to talk about it
TTITLE7=Bryan Adams - Please Forgive
TTITLE8=Rod Stewart - All for love
TTITLE9=Bryan Adams - Someday
TTITLE10=Rod Stewart - Baby Jane
TTITLE11=Bryan Adams - Straight from the Heart
TTITLE12=Rod Stewart - Forever young
TTITLE13=Bryan Adams - Heart of the night
TTITLE14=Rod Stewart - Track15
EXTD=
EXTT0=
EXTT1=
EXTT2=
EXTT3=
EXTT4=
EXTT5=
EXTT6=
EXTT7=
EXTT8=
EXTT9=
EXTT10=
EXTT11=
EXTT12=
EXTT13=
EXTT14=
PLAYORDER=
